# xmcd
# 
# Track frame offsets:
#     150
#     16813
#     33456
#     52230
#     69282
#     86780
#     103901
#     120289
#     134591
#     151446
#     170332
#     188593
# 
# Disc length: 2726
# 
# Revision: 1
# Processed by: cddbd v1.5.2PL0 Copyright (c) Steve Scherf et al.
# Submitted via: fre:ac v1.0.31
# 
DISCID=9d0aa40c
DTITLE=Peter Mathers - Costa Del Sol - Apsaionada
DYEAR=0
DGENRE=
TTITLE0=Eclipse
TTITLE1=Sundance
TTITLE2=Enchantress
TTITLE3=Puma
TTITLE4=Cafe Embrujo
TTITLE5=Eldorado
TTITLE6=El Gato
TTITLE7=Joya
TTITLE8=Trance Samba
TTITLE9=Apasionada
TTITLE10=Exotico
TTITLE11=Triste
EXTD=
EXTT0=
EXTT1=
EXTT2=
EXTT3=
EXTT4=
EXTT5=
EXTT6=
EXTT7=
EXTT8=
EXTT9=
EXTT10=
EXTT11=
PLAYORDER=
